File Name

Beatdown 2010 1080p BRRip H264.mp4

File Size
Format : MPEG-4
Format profile : Base Media
Codec ID : isom
File size : 3.72 GiB
Duration : 1h 29mn
Overall bit rate : 5 942 Kbps

Video
ID : 1
Format : AVC
Format/Info : Advanced Video Codec
Format profile : High@L4.1
Format settings, CABAC : Yes
Format settings, ReFrames : 3 frames
Codec ID : avc1
Codec ID/Info : Advanced Video Coding
Duration : 1h 29mn
Bit rate mode : Variable
Bit rate : 5 299 Kbps
Maximum bit rate : 22.5 Mbps
Width : 1 920 pixels
Height : 1 080 pixels
Display aspect ratio : 16:9
Frame rate mode : Constant
Frame rate : 23.976 fps
Resolution : 24 bits
Colorimetry : 4:2:0
Scan type : Progressive
Bits/(Pixel*Frame) : 0.107
Stream size : 3.32 GiB (89%)

Audio #1
ID : 2
Format : AAC
Format/Info : Advanced Audio Codec
Format version : Version 4
Format profile : LC
Format settings, SBR : No
Codec ID : 40
Duration : 1h 29mn
Bit rate mode : Variable
Bit rate : 192 Kbps
Maximum bit rate : 200 Kbps
Channel(s) : 2 channels
Channel positions : L R
Sampling rate : 48.0 KHz
Resolution : 16 bits
Stream size : 123 MiB (3%)

Audio #2
ID : 3
Format : AAC
Format/Info : Advanced Audio Codec
Format version : Version 4
Format profile : LC
Format settings, SBR : No
Codec ID : 40
Duration : 1h 29mn
Bit rate mode : Variable
Bit rate : 448 Kbps
Maximum bit rate : 462 Kbps
Channel(s) : 6 channels
Channel positions : Front: L C R, Rear: L R, LFE
Sampling rate : 48.0 KHz
Resolution : 16 bits
Stream size : 287 MiB (8%)

English SRT : External

Language : English
 
http://www.imdb.com/title/tt1568323/

Release Date: 31 August 2010 (USA)

Genre: Action

Plot: Brandon, a respected street fighter, is forced to flee the city after his brother is murdered and the money that was supposed to be paid back to a local gangster is stolen. While lying low at his father's house in a small Southern town, Brandon soon gets involved in the local underground cage-fighting circuit. With the help of Drake Colby, a former MMA champion, Brandon devises a scheme to bring a massive payday, if they are able to survive.

Cast:
Susie Abromeit ... Erin Dean
Desmond Aldridge ... Cage Match Patron
Eric Balfour ... Victor
Michael Bisping ... Drake
Brett Brock ... Roderick Dean
Zane Bumpass ... Dallas Gambler
Wray Crawford ... Mob Referee
Yan Dron ... Thug
Mike Gassaway ... Referee
Jeff Gibbs ... Todd
Jace Jeanes ... Lonnie
Hans Marrero ... Large Biker
Jonathan David Morris ... Thug #2
Jion Rastegar
Beau Smith ... Shug
Gary Teague ... MMA Fight Judge
Corey Terrell ... Dinner Guest
Danny Trejo
James M. Willis ... Pick Axe Operator
Kyle Woods ... Jayson
Rudy Youngblood ... Brandon